<?xml version="1.0" encoding="UTF-8"?>
<!DOCTYPE svg PUBLIC "-//W3C//DTD SVG 1.1//EN" "http://www.w3.org/Graphics/SVG/1.1/DTD/svg11.dtd">
<svg version="1.1" xmlns="http://www.w3.org/2000/svg"
                                        xmlns:xlink="http://www.w3.org/1999/xlink" x="0" y="0" width="645" height="190"
                                        viewBox="0, 0, 645, 190">
                                        <g id="Layer_1">
                                            <g>
                                                <path
                                                    d="M82.456,181.141 L82.457,181.143 C106.493,183.662 117.391,177.399 131.802,173.619 C154.961,167.539 160.257,189.178 160.257,189.178 L160.257,116.012 C151.34,151.69 120.242,178.563 82.456,181.141"
                                                    fill="#B69763" />
                                                <path
                                                    d="M160.257,74 L160.257,0.822 C160.257,0.822 154.961,22.476 131.802,16.393 C117.391,12.61 106.493,6.345 82.457,8.865 L82.452,8.869 C120.24,11.445 151.34,38.325 160.257,74"
                                                    fill="#B69763" />
                                                <path
                                                    d="M33.083,95.006 C33.083,58.654 58.631,28.273 92.754,20.83 C87.518,19.688 82.075,19.078 76.495,19.078 C34.562,19.078 0.571,53.072 0.571,95.006 C0.571,136.942 34.562,170.934 76.495,170.934 C82.075,170.934 87.518,170.326 92.754,169.184 C58.631,161.74 33.083,131.359 33.083,95.006"
                                                    fill="#B69763" />
                                            </g>
                                        </g>
                                    </svg>
